<svg width="25" height="24" viewBox="0 0 25 24" fill="none" xmlns="http://www.w3.org/2000/svg">
<path d="M8.70998 5.29018C8.61625 5.38315 8.54186 5.49375 8.49109 5.61561C8.44032 5.73746 8.41418 5.86817 8.41418 6.00018C8.41418 6.13219 8.44032 6.2629 8.49109 6.38476C8.54186 6.50662 8.61625 6.61722 8.70998 6.71018L13.29 11.2902C13.3837 11.3831 13.4581 11.4937 13.5089 11.6156C13.5596 11.7375 13.5858 11.8682 13.5858 12.0002C13.5858 12.1322 13.5596 12.2629 13.5089 12.3848C13.4581 12.5066 13.3837 12.6172 13.29 12.7102L8.70998 17.2902C8.61625 17.3831 8.54186 17.4937 8.49109 17.6156C8.44032 17.7375 8.41418 17.8682 8.41418 18.0002C8.41418 18.1322 8.44032 18.2629 8.49109 18.3848C8.54186 18.5066 8.61625 18.6172 8.70998 18.7102C8.89734 18.8964 9.1508 19.001 9.41498 19.001C9.67917 19.001 9.93262 18.8964 10.12 18.7102L14.71 14.1202C15.2718 13.5577 15.5873 12.7952 15.5873 12.0002C15.5873 11.2052 15.2718 10.4427 14.71 9.88018L10.12 5.29018C9.93262 5.10393 9.67917 4.99939 9.41498 4.99939C9.1508 4.99939 8.89734 5.10393 8.70998 5.29018Z" fill="#8E6565"/>
</svg>
