<svg width="45" height="72" viewBox="0 0 45 72" fill="none" xmlns="http://www.w3.org/2000/svg">
<path d="M37.4961 18.7471C38.6646 18.7498 39.8166 19.0244 40.8604 19.5498C41.9042 20.0752 42.8115 20.8365 43.5098 21.7734C44.2081 22.7105 44.6787 23.7978 44.8838 24.9482C45.0888 26.0986 45.0228 27.2809 44.6914 28.4014C43.4073 32.8702 41.0166 36.943 37.7402 40.2422C35.2874 42.6348 32.1765 44.1983 28.8418 44.7598L42.8555 68.4082C43.3832 69.2989 43.0889 70.4488 42.1982 70.9766C41.3076 71.5041 40.1577 71.21 39.6299 70.3193L34.6201 61.8652H10.3721L5.3623 70.3193C4.83445 71.2099 3.68461 71.5043 2.79395 70.9766C1.90336 70.4488 1.60912 69.2989 2.13672 68.4082L16.1504 44.7588C12.8185 44.196 9.71024 42.6325 7.25879 40.2422C3.98434 36.9419 1.59449 32.8694 0.30957 28.4014C-0.0222193 27.2811 -0.0885217 26.0986 0.116211 24.9482C0.320966 23.798 0.791338 22.7114 1.48926 21.7744C2.18722 20.8374 3.09414 20.0753 4.1377 19.5498C5.18113 19.0244 6.33273 18.75 7.50098 18.7471H37.4961ZM20.3604 45.0107L12.5947 58.1152H32.3984L24.6328 45.0107C24.6293 45.0048 24.6265 44.9982 24.623 44.9922H20.3701C20.3666 44.9982 20.3639 45.0047 20.3604 45.0107ZM4.83691 29.9951C6.02501 32.8159 7.73801 35.3951 9.89648 37.5889C12.3367 39.9559 15.6103 41.2687 19.0098 41.2432H25.9873C29.3842 41.2667 32.6543 39.953 35.0908 37.5859C37.2493 35.3934 38.9627 32.815 40.1504 29.9951H4.83691ZM7.50098 22.4961C6.91847 22.4933 6.34329 22.6272 5.82227 22.8877C5.30122 23.1482 4.84925 23.5284 4.50195 23.9961C4.14559 24.4694 3.90467 25.0194 3.7998 25.6025C3.7615 25.8156 3.74174 26.031 3.74023 26.2461H41.248C41.2467 26.0298 41.226 25.8129 41.1875 25.5986C41.0826 25.0156 40.8426 24.4654 40.4863 23.9922C40.1399 23.5262 39.6892 23.1475 39.1699 22.8877C38.6506 22.6278 38.0768 22.4939 37.4961 22.4961H7.50098ZM16.875 0C17.372 0.00012796 17.8487 0.197367 18.2002 0.548828C18.5516 0.900321 18.7489 1.37697 18.749 1.87402V3.49414C18.7478 4.08867 18.865 4.67738 19.0928 5.22656C19.3206 5.7758 19.6545 6.27513 20.0762 6.69434C20.8464 7.46108 21.4573 8.37279 21.873 9.37695C22.2888 10.3812 22.5019 11.4581 22.499 12.5449V13.1221C22.499 13.6193 22.3008 14.0967 21.9492 14.4482C21.5977 14.7997 21.1211 14.997 20.624 14.9971C20.1268 14.9971 19.6494 14.7998 19.2979 14.4482C18.9464 14.0967 18.749 13.6192 18.749 13.1221V12.5449C18.7505 11.9506 18.6346 11.3616 18.4072 10.8125C18.1797 10.2632 17.8452 9.76411 17.4238 9.34473C16.6531 8.57815 16.042 7.66635 15.626 6.66211C15.2099 5.65786 14.9972 4.58115 15 3.49414V1.87402C15.0001 1.37698 15.1974 0.900321 15.5488 0.548828C15.9004 0.197253 16.3778 0 16.875 0ZM24.373 0C24.8702 0 25.3476 0.197253 25.6992 0.548828C26.0506 0.900312 26.248 1.37702 26.248 1.87402V2.18945C26.2456 2.78508 26.3614 3.37528 26.5889 3.92578C26.8163 4.47628 27.1511 4.97628 27.5732 5.39648C28.3444 6.16272 28.956 7.07481 29.3721 8.0791C29.7882 9.08348 30.0004 10.1609 29.9971 11.248C29.997 11.7452 29.7997 12.2217 29.4482 12.5732C29.0967 12.9247 28.6201 13.122 28.123 13.1221C27.6258 13.1221 27.1485 12.9248 26.7969 12.5732C26.4455 12.2217 26.2481 11.7451 26.248 11.248C26.2502 10.6526 26.1338 10.062 25.9062 9.51172C25.6787 8.96165 25.3448 8.46191 24.9229 8.04199C24.1518 7.27523 23.5401 6.36305 23.124 5.3584C22.708 4.35385 22.4959 3.27673 22.499 2.18945V1.87402C22.4991 1.37693 22.6964 0.90033 23.0479 0.548828C23.3994 0.197328 23.876 7.56801e-05 24.373 0Z" fill="#8E6565"/>
</svg>
