<svg width="45" height="62" viewBox="0 0 45 62" fill="none" xmlns="http://www.w3.org/2000/svg">
<path d="M35.3333 18.2354H9.66667C7.23641 18.2382 4.90652 19.1998 3.18807 20.909C1.46962 22.6183 0.502911 24.9357 0.5 27.353L0.5 52.8824C0.502911 55.2997 1.46962 57.6171 3.18807 59.3264C4.90652 61.0356 7.23641 61.9972 9.66667 62.0001H35.3333C37.7636 61.9972 40.0935 61.0356 41.8119 59.3264C43.5304 57.6171 44.4971 55.2997 44.5 52.8824V27.353C44.4971 24.9357 43.5304 22.6183 41.8119 20.909C40.0935 19.1998 37.7636 18.2382 35.3333 18.2354V18.2354ZM40.8333 52.8824C40.8333 54.3333 40.2539 55.7248 39.2224 56.7507C38.191 57.7766 36.792 58.353 35.3333 58.353H9.66667C8.20798 58.353 6.80903 57.7766 5.77758 56.7507C4.74613 55.7248 4.16667 54.3333 4.16667 52.8824V27.353C4.16667 25.9021 4.74613 24.5106 5.77758 23.4847C6.80903 22.4588 8.20798 21.8824 9.66667 21.8824H35.3333C36.792 21.8824 38.191 22.4588 39.2224 23.4847C40.2539 24.5106 40.8333 25.9021 40.8333 27.353V52.8824Z" fill="#8E6565"/>
<path d="M43.5833 31V34.6471H2.33334V31H43.5833Z" fill="#8E6565"/>
<path d="M11.5 62L7.83333 62L7.83333 31L11.5 31L11.5 62Z" fill="#8E6565"/>
<path d="M24.3333 62L20.6667 62L20.6667 31L24.3333 31L24.3333 62Z" fill="#8E6565"/>
<path d="M37.1667 62L33.5 62L33.5 31L37.1667 31L37.1667 62Z" fill="#8E6565"/>
<path d="M28 10.9412C28.0033 9.8837 27.7954 8.83611 27.3885 7.85915C26.9816 6.88219 26.3837 5.99531 25.6295 5.24994C25.2166 4.84114 24.8893 4.35483 24.6668 3.81923C24.4443 3.28362 24.331 2.7094 24.3334 2.12988V1.82353C24.3334 1.3399 24.1402 0.876077 23.7964 0.534099C23.4526 0.192121 22.9863 0 22.5 0C22.0138 0 21.5475 0.192121 21.2037 0.534099C20.8599 0.876077 20.6667 1.3399 20.6667 1.82353V2.12988C20.6636 3.1876 20.8716 4.23542 21.2785 5.21265C21.6854 6.18989 22.2832 7.07711 23.0372 7.82294C23.45 8.23153 23.7771 8.71754 23.9996 9.25281C24.2221 9.78809 24.3355 10.362 24.3334 10.9412C24.3334 11.4248 24.5265 11.8886 24.8703 12.2306C25.2142 12.5726 25.6805 12.7647 26.1667 12.7647C26.6529 12.7647 27.1192 12.5726 27.4631 12.2306C27.8069 11.8886 28 11.4248 28 10.9412ZM20.6667 12.7647V12.2031C20.6696 11.1458 20.4617 10.0985 20.0551 9.1216C19.6486 8.14473 19.0514 7.25771 18.298 6.51182C17.8856 6.10404 17.5585 5.61898 17.3357 5.08469C17.113 4.5504 16.9989 3.97748 17 3.39906V1.82353C17 1.3399 16.8069 0.876077 16.4631 0.534099C16.1192 0.192121 15.6529 0 15.1667 0C14.6805 0 14.2142 0.192121 13.8703 0.534099C13.5265 0.876077 13.3334 1.3399 13.3334 1.82353V3.39906C13.3306 4.45646 13.5387 5.5039 13.9456 6.48079C14.3525 7.45768 14.9501 8.34462 15.7039 9.09029C16.116 9.49823 16.4427 9.98336 16.6652 10.5176C16.8876 11.0519 17.0015 11.6248 17 12.2031V12.7647C17 13.2483 17.1932 13.7122 17.537 14.0541C17.8808 14.3961 18.3471 14.5882 18.8334 14.5882C19.3196 14.5882 19.7859 14.3961 20.1297 14.0541C20.4735 13.7122 20.6667 13.2483 20.6667 12.7647Z" fill="#8E6565"/>
</svg>
