<svg width="51" height="46" viewBox="0 0 51 46" fill="none" xmlns="http://www.w3.org/2000/svg">
<path d="M48.4171 2.24961H27.5838C27.0313 2.24961 26.5014 2.4691 26.1107 2.8598C25.72 3.2505 25.5005 3.78041 25.5005 4.33294V11.1454L20.5005 2.47877C20.1356 1.84247 19.6092 1.31376 18.9746 0.946076C18.3399 0.578392 17.6194 0.384766 16.8859 0.384766C16.1524 0.384766 15.4319 0.578392 14.7972 0.946076C14.1625 1.31376 13.6362 1.84247 13.2713 2.47877L0.771301 24.1246C0.588451 24.4413 0.492188 24.8005 0.492188 25.1662C0.492188 25.5319 0.588451 25.8912 0.771301 26.2079C0.954852 26.5258 1.21915 26.7896 1.53744 26.9725C1.85573 27.1555 2.2167 27.251 2.5838 27.2496H11.5213C11.1168 28.6013 10.9132 30.0052 10.9171 31.4162C10.9171 35.284 12.4536 38.9933 15.1885 41.7282C17.9234 44.4631 21.6327 45.9996 25.5005 45.9996C29.3682 45.9996 33.0775 44.4631 35.8124 41.7282C38.5474 38.9933 40.0838 35.284 40.0838 31.4162C40.0877 30.0052 39.8841 28.6013 39.4796 27.2496H48.4171C48.9697 27.2496 49.4996 27.0301 49.8903 26.6394C50.281 26.2487 50.5005 25.7188 50.5005 25.1662V4.33294C50.5005 3.78041 50.281 3.2505 49.8903 2.8598C49.4996 2.4691 48.9697 2.24961 48.4171 2.24961ZM6.18797 23.0829L16.8755 4.56211L24.0213 16.8329C21.9378 17.0648 19.9288 17.7431 18.1312 18.8217C16.3336 19.9002 14.7897 21.3537 13.6046 23.0829H6.18797ZM25.5005 41.8329C23.4402 41.8329 21.4263 41.222 19.7133 40.0774C18.0003 38.9328 16.6651 37.3059 15.8767 35.4025C15.0883 33.4991 14.882 31.4047 15.284 29.384C15.6859 27.3634 16.678 25.5073 18.1348 24.0506C19.5916 22.5938 21.4476 21.6017 23.4683 21.1997C25.4889 20.7978 27.5834 21.0041 29.4868 21.7925C31.3902 22.5809 33.017 23.916 34.1616 25.6291C35.3062 27.3421 35.9171 29.356 35.9171 31.4162C35.9171 34.1789 34.8197 36.8284 32.8662 38.7819C30.9127 40.7354 28.2631 41.8329 25.5005 41.8329ZM46.3338 23.0829H37.4588C35.5669 20.3818 32.8232 18.3937 29.6671 17.4371V6.41627H46.3338V23.0829Z" fill="#8E6565"/>
</svg>
