<svg width="51" height="50" viewBox="0 0 51 50" fill="none" xmlns="http://www.w3.org/2000/svg">
<g clip-path="url(#clip0_1_928)">
<path d="M44.5042 27.0818C46.0938 27.0801 47.618 26.4479 48.742 25.3238C49.8661 24.1997 50.4983 22.6756 50.5 21.086C50.4977 19.4056 50.0992 17.7494 49.3369 16.2519C48.5746 14.7544 47.4699 13.4577 46.1125 12.4672L31.7687 2.03804C29.9491 0.708339 27.7537 -0.00830078 25.5 -0.00830078C23.2463 -0.00830078 21.0509 0.708339 19.2312 2.03804L4.8875 12.4672C3.53011 13.4577 2.42541 14.7544 1.66308 16.2519C0.900754 17.7494 0.502278 19.4056 0.5 21.086C0.501654 22.6756 1.13389 24.1997 2.25797 25.3238C3.38204 26.4479 4.90615 27.0801 6.49583 27.0818H23.4167V47.9151C23.4167 48.4677 23.6362 48.9976 24.0269 49.3883C24.4176 49.779 24.9475 49.9985 25.5 49.9985C26.0525 49.9985 26.5824 49.779 26.9731 49.3883C27.3638 48.9976 27.5833 48.4677 27.5833 47.9151V27.0818H44.5042ZM32.7917 16.8214C33.4729 17.8452 33.8354 19.0479 33.8333 20.2776V22.9151H27.5833V8.98387L32.7917 16.8214ZM43.6625 15.8318C44.4897 16.4357 45.1627 17.2262 45.6268 18.1392C46.0909 19.0522 46.3329 20.0618 46.3333 21.086C46.3328 21.5709 46.1399 22.0358 45.797 22.3788C45.4541 22.7217 44.9891 22.9146 44.5042 22.9151H38V20.2776C38.002 18.2271 37.3967 16.222 36.2604 14.5151L31.0521 6.66096L43.6625 15.8318ZM4.66667 21.086C4.66705 20.0618 4.90913 19.0522 5.37322 18.1392C5.83731 17.2262 6.51031 16.4357 7.3375 15.8318L19.9562 6.66512L14.7479 14.5193C13.6095 16.2241 13.0013 18.2277 13 20.2776V22.9151H6.49583C6.01088 22.9146 5.54594 22.7217 5.20303 22.3788C4.86011 22.0358 4.66722 21.5709 4.66667 21.086ZM17.1667 22.9151V20.2776C17.1646 19.0479 17.5271 17.8452 18.2083 16.8214L23.4167 8.98387V22.9151H17.1667Z" fill="#8E6565"/>
<path d="M8.83333 39.5833H4.66667V33.3333C4.66667 32.7808 4.44717 32.2509 4.05647 31.8602C3.66577 31.4695 3.13587 31.25 2.58333 31.25C2.0308 31.25 1.5009 31.4695 1.11019 31.8602C0.719493 32.2509 0.5 32.7808 0.5 33.3333L0.5 47.9167C0.5 48.4692 0.719493 48.9991 1.11019 49.3898C1.5009 49.7805 2.0308 50 2.58333 50C3.13587 50 3.66577 49.7805 4.05647 49.3898C4.44717 48.9991 4.66667 48.4692 4.66667 47.9167V43.75H8.83333C9.38587 43.75 9.91577 43.9695 10.3065 44.3602C10.6972 44.7509 10.9167 45.2808 10.9167 45.8333V47.9167C10.9167 48.4692 11.1362 48.9991 11.5269 49.3898C11.9176 49.7805 12.4475 50 13 50C13.5525 50 14.0824 49.7805 14.4731 49.3898C14.8638 48.9991 15.0833 48.4692 15.0833 47.9167V45.8333C15.0833 44.1757 14.4249 42.586 13.2528 41.4139C12.0806 40.2418 10.4909 39.5833 8.83333 39.5833Z" fill="#8E6565"/>
<path d="M48.417 31.25C47.8645 31.25 47.3346 31.4695 46.9439 31.8602C46.5532 32.2509 46.3337 32.7808 46.3337 33.3333V39.5833H42.167C40.5094 39.5833 38.9197 40.2418 37.7476 41.4139C36.5755 42.586 35.917 44.1757 35.917 45.8333V47.9167C35.917 48.4692 36.1365 48.9991 36.5272 49.3898C36.9179 49.7805 37.4478 50 38.0003 50C38.5529 50 39.0828 49.7805 39.4735 49.3898C39.8642 48.9991 40.0837 48.4692 40.0837 47.9167V45.8333C40.0837 45.2808 40.3032 44.7509 40.6939 44.3602C41.0846 43.9695 41.6145 43.75 42.167 43.75H46.3337V47.9167C46.3337 48.4692 46.5532 48.9991 46.9439 49.3898C47.3346 49.7805 47.8645 50 48.417 50C48.9695 50 49.4994 49.7805 49.8901 49.3898C50.2808 48.9991 50.5003 48.4692 50.5003 47.9167V33.3333C50.5003 32.7808 50.2808 32.2509 49.8901 31.8602C49.4994 31.4695 48.9695 31.25 48.417 31.25Z" fill="#8E6565"/>
</g>
<defs>
<clipPath id="clip0_1_928">
<rect width="50" height="50" fill="white" transform="translate(0.5)"/>
</clipPath>
</defs>
</svg>
