<svg width="51" height="50" viewBox="0 0 51 50" fill="none" xmlns="http://www.w3.org/2000/svg">
<path d="M40.0833 47.9167C40.0833 48.4693 39.8638 48.9992 39.4731 49.3899C39.0824 49.7806 38.5525 50.0001 38 50.0001H2.58333C2.0308 50.0001 1.5009 49.7806 1.11019 49.3899C0.719493 48.9992 0.5 48.4693 0.5 47.9167C0.5 47.3642 0.719493 46.8343 1.11019 46.4436C1.5009 46.0529 2.0308 45.8334 2.58333 45.8334H38C38.5525 45.8334 39.0824 46.0529 39.4731 46.4436C39.8638 46.8343 40.0833 47.3642 40.0833 47.9167ZM50.5 16.6667C50.5 22.4459 45.9479 29.1667 40.0833 29.1667H36.725L36.1 32.9605C35.7012 35.3974 34.4469 37.6125 32.5623 39.2081C30.6776 40.8037 28.286 41.6754 25.8167 41.6667H14.775C12.3071 41.6734 9.91747 40.8008 8.03457 39.2054C6.15167 37.6099 4.8986 35.396 4.5 32.9605L0.616667 9.70214C0.417945 8.50871 0.481475 7.28631 0.802839 6.1199C1.1242 4.95349 1.6957 3.87105 2.4776 2.94779C3.25951 2.02453 4.23307 1.2826 5.33064 0.773555C6.42821 0.264512 7.62346 0.000566702 8.83333 6.00943e-05H31.75C32.8439 -0.0041106 33.9277 0.208851 34.9386 0.626603C35.9496 1.04435 36.8675 1.65859 37.6394 2.43371C38.4112 3.20883 39.0215 4.12943 39.435 5.14215C39.8484 6.15487 40.0567 7.23957 40.0479 8.33339H40.0833C46.6062 8.33339 50.5 11.4584 50.5 16.6667ZM35.8583 9.01881C35.9579 8.42201 35.9262 7.8107 35.7656 7.22737C35.605 6.64404 35.3193 6.10268 34.9283 5.64093C34.5374 5.17918 34.0505 4.80811 33.5016 4.55353C32.9528 4.29895 32.355 4.16695 31.75 4.16673H8.83333C8.2285 4.16701 7.63098 4.29896 7.08228 4.55342C6.53358 4.80788 6.04686 5.17874 5.65593 5.64025C5.26499 6.10176 4.97922 6.64285 4.81846 7.22593C4.6577 7.809 4.62581 8.42008 4.725 9.01673L8.60208 32.2771C8.84165 33.7381 9.59358 35.0661 10.7232 36.0231C11.8527 36.9802 13.2862 37.5037 14.7667 37.5001H25.8083C27.2888 37.5037 28.7223 36.9802 29.8518 36.0231C30.9814 35.0661 31.7333 33.7381 31.9729 32.2771L35.8583 9.01881ZM46.3333 16.6667C46.3333 15.6251 46.3333 12.5001 40.0833 12.5001H39.5021L37.4188 25.0001H40.0833C43.3021 25.0001 46.3333 20.3042 46.3333 16.6667Z" fill="#8E6565"/>
</svg>
