<svg width="51" height="50" viewBox="0 0 51 50" fill="none" xmlns="http://www.w3.org/2000/svg">
<g clip-path="url(#clip0_1_1279)">
<path d="M48.6692 18.8937L32.8671 3.08949C30.9114 1.13947 28.2623 0.0444336 25.5005 0.0444336C22.7387 0.0444336 20.0895 1.13947 18.1338 3.08949L2.3317 18.8937C1.74926 19.4724 1.28747 20.1609 0.973124 20.9195C0.658776 21.678 0.498114 22.4913 0.500452 23.3124V43.7645C0.500452 45.4221 1.15893 47.0118 2.33104 48.1839C3.50314 49.356 5.09285 50.0145 6.75045 50.0145H44.2505C45.9081 50.0145 47.4978 49.356 48.6699 48.1839C49.842 47.0118 50.5005 45.4221 50.5005 43.7645V23.3124C50.5028 22.4913 50.3421 21.678 50.0278 20.9195C49.7134 20.1609 49.2517 19.4724 48.6692 18.8937ZM31.7505 45.8478H19.2505V37.652C19.2505 35.9944 19.9089 34.4047 21.081 33.2326C22.2531 32.0605 23.8429 31.402 25.5005 31.402C27.1581 31.402 28.7478 32.0605 29.9199 33.2326C31.092 34.4047 31.7505 35.9944 31.7505 37.652V45.8478ZM46.3338 43.7645C46.3338 44.317 46.1143 44.8469 45.7236 45.2376C45.3329 45.6283 44.803 45.8478 44.2505 45.8478H35.9171V37.652C35.9171 34.8893 34.8197 32.2398 32.8661 30.2863C30.9126 28.3328 28.2631 27.2353 25.5005 27.2353C22.7378 27.2353 20.0883 28.3328 18.1348 30.2863C16.1813 32.2398 15.0838 34.8893 15.0838 37.652V45.8478H6.75045C6.19792 45.8478 5.66801 45.6283 5.27731 45.2376C4.88661 44.8469 4.66712 44.317 4.66712 43.7645V23.3124C4.66905 22.7603 4.88835 22.2311 5.27754 21.8395L21.0796 6.04157C22.254 4.87267 23.8435 4.21645 25.5005 4.21645C27.1574 4.21645 28.7469 4.87267 29.9213 6.04157L45.7234 21.8457C46.111 22.2358 46.3302 22.7624 46.3338 23.3124V43.7645Z" fill="#8E6565"/>
</g>
<defs>
<clipPath id="clip0_1_1279">
<rect width="50" height="50" fill="white" transform="translate(0.5)"/>
</clipPath>
</defs>
</svg>
