<svg width="51" height="50" viewBox="0 0 51 50" fill="none" xmlns="http://www.w3.org/2000/svg">
<g clip-path="url(#clip0_1_1286)">
<path d="M44.0414 8.93975C43.3077 6.93187 41.9752 5.19766 40.224 3.97149C38.4729 2.74531 36.3875 2.0863 34.2498 2.0835H16.7498C14.612 2.0863 12.5267 2.74531 10.7755 3.97149C9.02437 5.19766 7.69187 6.93187 6.9581 8.93975L1.3331 24.4127C0.779869 25.9366 0.497829 27.5456 0.499766 29.1668V31.2502C0.503483 32.8602 0.881917 34.4472 1.60511 35.8856C2.3283 37.324 3.3764 38.5744 4.66643 39.5377C4.66643 39.5543 4.66643 39.5668 4.66643 39.5835V43.7502C4.66643 45.4078 5.32491 46.9975 6.49702 48.1696C7.66912 49.3417 9.25883 50.0002 10.9164 50.0002C12.574 50.0002 14.1637 49.3417 15.3359 48.1696C16.508 46.9975 17.1664 45.4078 17.1664 43.7502V41.6668H33.8331V43.7502C33.8331 45.4078 34.4916 46.9975 35.6637 48.1696C36.8358 49.3417 38.4255 50.0002 40.0831 50.0002C41.7407 50.0002 43.3304 49.3417 44.5025 48.1696C45.6746 46.9975 46.3331 45.4078 46.3331 43.7502V39.5835C46.3331 39.5668 46.3331 39.5543 46.3331 39.5377C47.6231 38.5744 48.6712 37.324 49.3944 35.8856C50.1176 34.4472 50.4961 32.8602 50.4998 31.2502V29.1668C50.5019 27.5463 50.2198 25.9379 49.6664 24.4147L44.0414 8.93975ZM10.8789 10.3647C11.3194 9.16093 12.1184 8.12109 13.1681 7.38539C14.2179 6.64968 15.4679 6.25347 16.7498 6.25016H34.2498C35.5324 6.25262 36.7833 6.64843 37.8339 7.3842C38.8844 8.11996 39.684 9.16027 40.1248 10.3647L44.6831 22.9168H6.31435L10.8789 10.3647ZM12.9998 43.7502C12.9998 44.3027 12.7803 44.8326 12.3896 45.2233C11.9989 45.614 11.469 45.8335 10.9164 45.8335C10.3639 45.8335 9.834 45.614 9.4433 45.2233C9.05259 44.8326 8.8331 44.3027 8.8331 43.7502V41.4585C9.51879 41.5977 10.2168 41.6675 10.9164 41.6668H12.9998V43.7502ZM42.1664 43.7502C42.1664 44.3027 41.9469 44.8326 41.5562 45.2233C41.1655 45.614 40.6356 45.8335 40.0831 45.8335C39.5306 45.8335 39.0007 45.614 38.61 45.2233C38.2193 44.8326 37.9998 44.3027 37.9998 43.7502V41.6668H40.0831C40.7828 41.6675 41.4808 41.5977 42.1664 41.4585V43.7502ZM46.3331 31.2502C46.3331 32.9078 45.6746 34.4975 44.5025 35.6696C43.3304 36.8417 41.7407 37.5002 40.0831 37.5002H10.9164C9.25883 37.5002 7.66912 36.8417 6.49702 35.6696C5.32491 34.4975 4.66643 32.9078 4.66643 31.2502V29.1668C4.67492 28.4653 4.75944 27.7668 4.91852 27.0835H8.8331V29.1668C8.8331 29.7194 9.05259 30.2493 9.4433 30.64C9.834 31.0307 10.3639 31.2502 10.9164 31.2502C11.469 31.2502 11.9989 31.0307 12.3896 30.64C12.7803 30.2493 12.9998 29.7194 12.9998 29.1668V27.0835H37.9998V29.1668C37.9998 29.7194 38.2193 30.2493 38.61 30.64C39.0007 31.0307 39.5306 31.2502 40.0831 31.2502C40.6356 31.2502 41.1655 31.0307 41.5562 30.64C41.9469 30.2493 42.1664 29.7194 42.1664 29.1668V27.0835H46.081C46.2402 27.7668 46.3247 28.4653 46.3331 29.1668V31.2502Z" fill="#8E6565"/>
</g>
<defs>
<clipPath id="clip0_1_1286">
<rect width="50" height="50" fill="white" transform="translate(0.5)"/>
</clipPath>
</defs>
</svg>
