<svg width="25" height="25" viewBox="0 0 25 25" fill="none" xmlns="http://www.w3.org/2000/svg">
<path d="M12.2902 4C14.5285 4.00001 16.3981 4.81968 17.8351 6.15527L15.4962 8.43945C14.8974 7.87751 13.8469 7.20509 12.2902 7.20508C10.0978 7.20508 8.23709 8.65148 7.56458 10.6504C7.39878 11.1662 7.29798 11.7189 7.29797 12.29C7.29797 12.8611 7.39932 13.4138 7.57434 13.9297C8.23767 15.9286 10.0978 17.375 12.2902 17.375C13.5245 17.375 14.4641 17.0341 15.1642 16.5459L15.3644 16.3965C16.3301 15.6298 16.7731 14.5733 16.8595 13.8564H12.2902V10.7793H20.0743C20.194 11.2951 20.2491 11.793 20.2491 12.4746C20.2491 14.9984 19.3462 17.1261 17.7804 18.5723L17.5167 18.8047C16.1711 19.9329 14.3885 20.5801 12.2902 20.5801C9.14886 20.5801 6.42247 18.8341 5.01575 16.2627L4.88391 16.0117L4.68469 15.584C4.24654 14.5713 4.00012 13.4588 4.00012 12.29C4.00013 10.9544 4.32203 9.69218 4.88391 8.56836C6.24724 5.86023 9.04769 4 12.2902 4Z" fill="#F4EFEB"/>
</svg>
