<svg width="33" height="33" viewBox="0 0 33 33" fill="none" xmlns="http://www.w3.org/2000/svg">
<path d="M22.5859 3.36719C24.4549 3.36719 26.2473 4.10962 27.5688 5.43117C28.8904 6.75272 29.6328 8.54511 29.6328 10.4141V22.5859C29.6328 24.4549 28.8904 26.2473 27.5688 27.5688C26.2473 28.8904 24.4549 29.6328 22.5859 29.6328H10.4141C8.54511 29.6328 6.75272 28.8904 5.43117 27.5688C4.10962 26.2473 3.36719 24.4549 3.36719 22.5859V10.4141C3.36719 8.54511 4.10962 6.75272 5.43117 5.43117C6.75272 4.10962 8.54511 3.36719 10.4141 3.36719H22.5859ZM22.5859 0.804688H10.4141C7.86784 0.812292 5.42807 1.82715 3.62761 3.62761C1.82715 5.42807 0.812292 7.86784 0.804688 10.4141V22.5859C0.812292 25.1322 1.82715 27.5719 3.62761 29.3724C5.42807 31.1729 7.86784 32.1877 10.4141 32.1953H22.5859C25.1322 32.1877 27.5719 31.1729 29.3724 29.3724C31.1729 27.5719 32.1877 25.1322 32.1953 22.5859V10.4141C32.1877 7.86784 31.1729 5.42807 29.3724 3.62761C27.5719 1.82715 25.1322 0.812292 22.5859 0.804688Z" fill="#3A3A3A"/>
<path d="M24.873 6.25C24.51 6.25 24.1551 6.35764 23.8533 6.55932C23.5515 6.76099 23.3162 7.04764 23.1773 7.38302C23.0384 7.71839 23.002 8.08743 23.0729 8.44346C23.1437 8.79949 23.3185 9.12652 23.5752 9.38321C23.8318 9.63989 24.1589 9.8147 24.5149 9.88551C24.8709 9.95633 25.24 9.91999 25.5753 9.78107C25.9107 9.64215 26.1974 9.40691 26.399 9.10508C26.6007 8.80325 26.7084 8.4484 26.7084 8.08539C26.7084 7.84436 26.6609 7.6057 26.5687 7.38302C26.4764 7.16034 26.3412 6.95801 26.1708 6.78757C26.0004 6.61714 25.798 6.48195 25.5753 6.38971C25.3527 6.29747 25.114 6.25 24.873 6.25Z" fill="#3A3A3A"/>
<path d="M16.5865 10.8848C17.7068 10.8841 18.8022 11.2158 19.734 11.8379C20.6657 12.4599 21.3921 13.3443 21.8211 14.3792C22.2501 15.4142 22.3626 16.5531 22.1442 17.6519C21.9257 18.7508 21.3863 19.7601 20.5941 20.5523C19.8019 21.3445 18.7926 21.884 17.6937 22.1024C16.5949 22.3208 15.456 22.2084 14.421 21.7793C13.3861 21.3503 12.5017 20.624 11.8796 19.6922C11.2576 18.7604 10.9259 17.665 10.9266 16.5447C10.9291 15.0444 11.5262 13.6062 12.5871 12.5453C13.648 11.4844 15.0862 10.8873 16.5865 10.8848ZM16.5865 8.32228C14.9602 8.32545 13.3713 8.81064 12.0206 9.71655C10.67 10.6225 9.61815 11.9084 8.99813 13.4119C8.3781 14.9154 8.21767 16.569 8.53713 18.1636C8.85658 19.7583 9.64157 21.2224 10.7929 22.3711C11.9442 23.5197 13.4102 24.3013 15.0056 24.617C16.601 24.9327 18.2542 24.7685 19.7562 24.1449C21.2583 23.5214 22.5418 22.4666 23.4445 21.1138C24.3473 19.7611 24.8288 18.171 24.8281 16.5447C24.8277 15.4634 24.6141 14.3928 24.1995 13.3942C23.785 12.3955 23.1776 11.4884 22.4121 10.7247C21.6466 9.96102 20.7381 9.35574 19.7385 8.94351C18.7389 8.53128 17.6678 8.32018 16.5865 8.32228Z" fill="#3A3A3A"/>
</svg>
