<svg width="33" height="33" viewBox="0 0 33 33" fill="none" xmlns="http://www.w3.org/2000/svg">
<path d="M22.5859 3.36719C24.4549 3.36719 26.2473 4.10962 27.5688 5.43117C28.8904 6.75272 29.6328 8.54511 29.6328 10.4141V22.5859C29.6328 24.4549 28.8904 26.2473 27.5688 27.5688C26.2473 28.8904 24.4549 29.6328 22.5859 29.6328H10.4141C8.54511 29.6328 6.75272 28.8904 5.43117 27.5688C4.10962 26.2473 3.36719 24.4549 3.36719 22.5859V10.4141C3.36719 8.54511 4.10962 6.75272 5.43117 5.43117C6.75272 4.10962 8.54511 3.36719 10.4141 3.36719H22.5859ZM22.5859 0.804688H10.4141C7.86784 0.812292 5.42807 1.82715 3.62761 3.62761C1.82715 5.42807 0.812292 7.86784 0.804688 10.4141V22.5859C0.812292 25.1322 1.82715 27.5719 3.62761 29.3724C5.42807 31.1729 7.86784 32.1877 10.4141 32.1953H22.5859C25.1322 32.1877 27.5719 31.1729 29.3724 29.3724C31.1729 27.5719 32.1877 25.1322 32.1953 22.5859V10.4141C32.1877 7.86784 31.1729 5.42807 29.3724 3.62761C27.5719 1.82715 25.1322 0.812292 22.5859 0.804688Z" fill="white"/>
<path d="M24.873 6.25C24.51 6.25 24.1551 6.35764 23.8533 6.55932C23.5515 6.76099 23.3162 7.04764 23.1773 7.38302C23.0384 7.71839 23.002 8.08743 23.0729 8.44346C23.1437 8.79949 23.3185 9.12652 23.5752 9.38321C23.8319 9.63989 24.1589 9.8147 24.5149 9.88551C24.871 9.95633 25.24 9.91999 25.5754 9.78107C25.9107 9.64215 26.1974 9.40691 26.3991 9.10508C26.6007 8.80325 26.7084 8.4484 26.7084 8.08539C26.7084 7.84436 26.6609 7.6057 26.5687 7.38302C26.4764 7.16034 26.3412 6.95801 26.1708 6.78757C26.0004 6.61714 25.798 6.48195 25.5754 6.38971C25.3527 6.29747 25.114 6.25 24.873 6.25Z" fill="white"/>
<path d="M16.5864 10.8849C17.7068 10.8843 18.8021 11.2159 19.7339 11.838C20.6657 12.46 21.3921 13.3444 21.8211 14.3794C22.2501 15.4143 22.3625 16.5532 22.1441 17.6521C21.9257 18.7509 21.3863 19.7603 20.5941 20.5525C19.8019 21.3447 18.7925 21.8841 17.6937 22.1025C16.5948 22.3209 15.4559 22.2085 14.421 21.7795C13.3861 21.3504 12.5016 20.6241 11.8796 19.6923C11.2576 18.7605 10.9259 17.6652 10.9265 16.5448C10.9291 15.0445 11.5262 13.6064 12.5871 12.5455C13.648 11.4846 15.0861 10.8874 16.5864 10.8849ZM16.5864 8.3224C14.9601 8.32557 13.3712 8.81076 12.0206 9.71667C10.6699 10.6226 9.61811 11.9085 8.99808 13.412C8.37805 14.9155 8.21763 16.5691 8.53708 18.1637C8.85653 19.7584 9.64153 21.2225 10.7929 22.3712C11.9442 23.5198 13.4102 24.3014 15.0056 24.6171C16.601 24.9329 18.2541 24.7686 19.7562 24.1451C21.2582 23.5215 22.5417 22.4667 23.4445 21.1139C24.3472 19.7612 24.8287 18.1712 24.8281 16.5448C24.8277 15.4635 24.6141 14.3929 24.1995 13.3943C23.7849 12.3956 23.1775 11.4885 22.4121 10.7248C21.6466 9.96114 20.738 9.35587 19.7384 8.94363C18.7388 8.5314 17.6677 8.3203 16.5864 8.3224Z" fill="white"/>
</svg>
