<svg width="48" height="48" viewBox="0 0 48 48" fill="none" xmlns="http://www.w3.org/2000/svg">
<rect x="0.5" y="0.5" width="47" height="47" rx="23.5" stroke="black"/>
<g clip-path="url(#clip0_1_1256)">
<path d="M19.1464 23.8535C18.9512 23.6582 18.9512 23.3416 19.1464 23.1464L22.3284 19.9644C22.5237 19.7691 22.8403 19.7691 23.0355 19.9644C23.2308 20.1596 23.2308 20.4762 23.0355 20.6715L20.2071 23.4999L23.0355 26.3283C23.2308 26.5236 23.2308 26.8402 23.0355 27.0354C22.8403 27.2307 22.5237 27.2307 22.3284 27.0354L19.1464 23.8535ZM29.5 23.9999H19.5V22.9999H29.5L29.5 23.9999Z" fill="#252324"/>
</g>
<defs>
<clipPath id="clip0_1_1256">
<rect width="11" height="8" fill="white" transform="matrix(-1 0 0 -1 29.5 27.5)"/>
</clipPath>
</defs>
</svg>
