<svg width="71" height="12" viewBox="0 0 71 12" fill="none" xmlns="http://www.w3.org/2000/svg">
<path d="M6.01013 0.489868L7.35961 4.6426L11.7261 4.64277L8.19363 7.20946L9.5428 11.3623L6.01013 8.79587L2.47746 11.3623L3.82663 7.20946L0.294157 4.64277L4.66065 4.6426L6.01013 0.489868Z" fill="#F4EFEB"/>
<path d="M20.6062 0.489868L21.9557 4.6426L26.3222 4.64277L22.7897 7.20946L24.1389 11.3623L20.6062 8.79587L17.0735 11.3623L18.4227 7.20946L14.8902 4.64277L19.2567 4.6426L20.6062 0.489868Z" fill="#F4EFEB"/>
<path d="M35.2021 0.489868L36.5516 4.6426L40.9181 4.64277L37.3857 7.20946L38.7348 11.3623L35.2021 8.79587L31.6695 11.3623L33.0186 7.20946L29.4862 4.64277L33.8527 4.6426L35.2021 0.489868Z" fill="#F4EFEB"/>
<path d="M49.7982 0.489868L51.1477 4.6426L55.5142 4.64277L51.9817 7.20946L53.3309 11.3623L49.7982 8.79587L46.2656 11.3623L47.6147 7.20946L44.0822 4.64277L48.4487 4.6426L49.7982 0.489868Z" fill="#F4EFEB"/>
<path d="M64.3944 0.489868L65.7439 4.6426L70.1104 4.64277L66.5779 7.20946L67.9271 11.3623L64.3944 8.79587L60.8617 11.3623L62.2109 7.20946L58.6784 4.64277L63.0449 4.6426L64.3944 0.489868Z" fill="#F4EFEB"/>
</svg>
