<svg width="48" height="44" viewBox="0 0 48 44" fill="none" xmlns="http://www.w3.org/2000/svg">
<rect width="48" height="44" rx="11" fill="white"/>
<g clip-path="url(#clip0_4047_151)">
<path d="M35.7068 32.2938L29.7378 26.3248C31.3644 24.3354 32.1642 21.7969 31.9716 19.2343C31.7791 16.6718 30.609 14.2813 28.7034 12.5573C26.7977 10.8333 24.3024 9.90765 21.7334 9.97188C19.1645 10.0361 16.7185 11.0853 14.9014 12.9024C13.0843 14.7195 12.0351 17.1655 11.9709 19.7344C11.9067 22.3034 12.8323 24.7987 14.5563 26.7043C16.2803 28.61 18.6708 29.7801 21.2333 29.9726C23.7959 30.1651 26.3344 29.3654 28.3238 27.7388L34.2928 33.7078C34.4814 33.8899 34.734 33.9907 34.9962 33.9884C35.2584 33.9862 35.5092 33.881 35.6946 33.6956C35.88 33.5102 35.9852 33.2594 35.9875 32.9972C35.9897 32.735 35.8889 32.4824 35.7068 32.2938ZM21.9998 28.0008C20.4175 28.0008 18.8708 27.5316 17.5552 26.6525C16.2396 25.7735 15.2142 24.524 14.6087 23.0622C14.0032 21.6004 13.8448 19.9919 14.1535 18.44C14.4622 16.8882 15.2241 15.4627 16.3429 14.3439C17.4617 13.2251 18.8872 12.4632 20.4391 12.1545C21.9909 11.8458 23.5994 12.0042 25.0613 12.6097C26.5231 13.2152 27.7725 14.2406 28.6515 15.5562C29.5306 16.8718 29.9998 18.4185 29.9998 20.0008C29.9974 22.1218 29.1538 24.1552 27.654 25.655C26.1542 27.1548 24.1208 27.9984 21.9998 28.0008Z" fill="#374957"/>
<path d="M25 19H23V17C23 16.7348 22.8946 16.4804 22.7071 16.2929C22.5196 16.1054 22.2652 16 22 16C21.7348 16 21.4804 16.1054 21.2929 16.2929C21.1054 16.4804 21 16.7348 21 17V19H19C18.7348 19 18.4804 19.1054 18.2929 19.2929C18.1054 19.4804 18 19.7348 18 20C18 20.2652 18.1054 20.5196 18.2929 20.7071C18.4804 20.8946 18.7348 21 19 21H21V23C21 23.2652 21.1054 23.5196 21.2929 23.7071C21.4804 23.8946 21.7348 24 22 24C22.2652 24 22.5196 23.8946 22.7071 23.7071C22.8946 23.5196 23 23.2652 23 23V21H25C25.2652 21 25.5196 20.8946 25.7071 20.7071C25.8946 20.5196 26 20.2652 26 20C26 19.7348 25.8946 19.4804 25.7071 19.2929C25.5196 19.1054 25.2652 19 25 19Z" fill="#374957"/>
</g>
<defs>
<clipPath id="clip0_4047_151">
<rect width="24" height="24" fill="white" transform="translate(12 10)"/>
</clipPath>
</defs>
</svg>
